<svg width="320" height="568" xmlns="http://www.w3.org/2000/svg"><g><path d="M-40,-67L-88,83L72,65Z" fill="#eff7fd" stroke="#eff7fd" fill-opacity="1" stroke-opacity="1"/><path d="M-40,-67L72,65L102,-31Z" fill="#e1eef7" stroke="#e1eef7" fill-opacity="1" stroke-opacity="1"/><path d="M-40,-67L102,-31L236,-66Z" fill="#d1e6f1" stroke="#d1e6f1" fill-opacity="1" stroke-opacity="1"/><path d="M102,-31L72,65L222,107Z" fill="#b9dbec" stroke="#b9dbec" fill-opacity="1" stroke-opacity="1"/><path d="M102,-31L222,107L236,-66Z" fill="#a5cae3" stroke="#a5cae3" fill-opacity="1" stroke-opacity="1"/><path d="M236,-66L222,107L354,-23Z" fill="#7fadd5" stroke="#7fadd5" fill-opacity="1" stroke-opacity="1"/><path d="M236,-66L354,-23L507,-29Z" fill="#808dc5" stroke="#808dc5" fill-opacity="1" stroke-opacity="1"/><path d="M354,-23L222,107L386,125Z" fill="#739acc" stroke="#739acc" fill-opacity="1" stroke-opacity="1"/><path d="M354,-23L386,125L507,-29Z" fill="#7b7fbc" stroke="#7b7fbc" fill-opacity="1" stroke-opacity="1"/><path d="M507,-29L386,125L568,45Z" fill="#777eb0" stroke="#777eb0" fill-opacity="1" stroke-opacity="1"/><path d="M-88,83L-95,471L-58,397Z" fill="#b2dbf5" stroke="#b2dbf5" fill-opacity="1" stroke-opacity="1"/><path d="M-88,83L-58,397L-30,277Z" fill="#c8e9fa" stroke="#c8e9fa" fill-opacity="1" stroke-opacity="1"/><path d="M-88,83L-30,277L38,174Z" fill="#d7f3fe" stroke="#d7f3fe" fill-opacity="1" stroke-opacity="1"/><path d="M-88,83L38,174L72,65Z" fill="#daf0fa" stroke="#daf0fa" fill-opacity="1" stroke-opacity="1"/><path d="M72,65L38,174L222,107Z" fill="#b8dff0" stroke="#b8dff0" fill-opacity="1" stroke-opacity="1"/><path d="M222,107L38,174L259,200Z" fill="#90c8e5" stroke="#90c8e5" fill-opacity="1" stroke-opacity="1"/><path d="M222,107L259,200L340,165Z" fill="#64a6d4" stroke="#64a6d4" fill-opacity="1" stroke-opacity="1"/><path d="M222,107L340,165L386,125Z" fill="#6899cd" stroke="#6899cd" fill-opacity="1" stroke-opacity="1"/><path d="M386,125L340,165L475,338Z" fill="#5776bd" stroke="#5776bd" fill-opacity="1" stroke-opacity="1"/><path d="M386,125L475,338L585,275Z" fill="#4b6cac" stroke="#4b6cac" fill-opacity="1" stroke-opacity="1"/><path d="M386,125L585,275L568,45Z" fill="#667aac" stroke="#667aac" fill-opacity="1" stroke-opacity="1"/><path d="M-30,277L-58,397L48,358Z" fill="#9ccdf0" stroke="#9ccdf0" fill-opacity="1" stroke-opacity="1"/><path d="M-30,277L48,358L38,174Z" fill="#acd9f3" stroke="#acd9f3" fill-opacity="1" stroke-opacity="1"/><path d="M38,174L48,358L259,200Z" fill="#96ceea" stroke="#96ceea" fill-opacity="1" stroke-opacity="1"/><path d="M259,200L48,358L167,400Z" fill="#67afdd" stroke="#67afdd" fill-opacity="1" stroke-opacity="1"/><path d="M259,200L167,400L320,339Z" fill="#3a92ce" stroke="#3a92ce" fill-opacity="1" stroke-opacity="1"/><path d="M259,200L320,339L340,165Z" fill="#4f90cb" stroke="#4f90cb" fill-opacity="1" stroke-opacity="1"/><path d="M340,165L320,339L475,338Z" fill="#3f6ebb" stroke="#3f6ebb" fill-opacity="1" stroke-opacity="1"/><path d="M585,275L475,338L467,528Z" fill="#1d4d9d" stroke="#1d4d9d" fill-opacity="1" stroke-opacity="1"/><path d="M585,275L467,528L520,710Z" fill="#003191" stroke="#003191" fill-opacity="1" stroke-opacity="1"/><path d="M-58,397L-95,471L104,482Z" fill="#79b6e8" stroke="#79b6e8" fill-opacity="1" stroke-opacity="1"/><path d="M-58,397L104,482L48,358Z" fill="#77b7e7" stroke="#77b7e7" fill-opacity="1" stroke-opacity="1"/><path d="M48,358L104,482L167,400Z" fill="#60abdf" stroke="#60abdf" fill-opacity="1" stroke-opacity="1"/><path d="M167,400L104,482L186,510Z" fill="#3890d3" stroke="#3890d3" fill-opacity="1" stroke-opacity="1"/><path d="M167,400L186,510L320,339Z" fill="#2383ca" stroke="#2383ca" fill-opacity="1" stroke-opacity="1"/><path d="M320,339L186,510L382,483Z" fill="#0764bc" stroke="#0764bc" fill-opacity="1" stroke-opacity="1"/><path d="M320,339L382,483L475,338Z" fill="#1b50b1" stroke="#1b50b1" fill-opacity="1" stroke-opacity="1"/><path d="M475,338L382,483L467,528Z" fill="#053ea3" stroke="#053ea3" fill-opacity="1" stroke-opacity="1"/><path d="M-95,471L-46,695L104,482Z" fill="#739ee0" stroke="#739ee0" fill-opacity="1" stroke-opacity="1"/><path d="M104,482L-46,695L123,687Z" fill="#5d83d3" stroke="#5d83d3" fill-opacity="1" stroke-opacity="1"/><path d="M104,482L123,687L186,510Z" fill="#3f7fce" stroke="#3f7fce" fill-opacity="1" stroke-opacity="1"/><path d="M186,510L123,687L223,663Z" fill="#2b64c2" stroke="#2b64c2" fill-opacity="1" stroke-opacity="1"/><path d="M186,510L223,663L341,667Z" fill="#064db7" stroke="#064db7" fill-opacity="1" stroke-opacity="1"/><path d="M186,510L341,667L382,483Z" fill="#0049b2" stroke="#0049b2" fill-opacity="1" stroke-opacity="1"/><path d="M382,483L341,667L467,528Z" fill="#0028a2" stroke="#0028a2" fill-opacity="1" stroke-opacity="1"/><path d="M467,528L341,667L520,710Z" fill="#001494" stroke="#001494" fill-opacity="1" stroke-opacity="1"/><path d="M-46,695L520,710L123,687Z" fill="#204bb9" stroke="#204bb9" fill-opacity="1" stroke-opacity="1"/><path d="M123,687L520,710L341,667Z" fill="#0022a3" stroke="#0022a3" fill-opacity="1" stroke-opacity="1"/><path d="M123,687L341,667L223,663Z" fill="#1147b5" stroke="#1147b5" fill-opacity="1" stroke-opacity="1"/></g></svg>